<svg xmlns:svg="http://www.w3.org/2000/svg" xmlns="http://www.w3.org/2000/svg" version="1.0" width="1024" height="446" viewBox="-0.72455613 -0.72455613 58.75819026 25.60098326" id="svg2317">
  <defs id="defs2319"/>
  <g transform="translate(-346.34546,-520.28625)" id="layer1">
    <path d="M 372.07821,531.63637 L 372.07821,530.40262 L 367.33659,530.40262 C 365.00484,530.40262 363.91609,531.20162 363.91609,532.43762 C 363.91609,533.57087 364.96609,534.57162 367.64846,534.57162 C 370.95121,534.57162 372.07821,534.2705 372.07821,531.63637 z M 361.93559,523.36912 L 360.26259,525.05662 C 358.70596,524.12187 357.11284,523.48812 354.97484,523.48812 C 352.44846,523.48812 351.59384,524.35537 351.59384,525.52312 C 351.59384,526.25675 352.21559,526.9905 354.19721,527.12475 L 357.46246,527.32362 C 359.47721,527.43875 360.89334,528.017 361.81371,528.89712 C 362.88834,527.97975 364.48659,527.39612 366.59834,527.39612 L 372.07821,527.39612 L 372.07821,525.67425 C 372.07821,524.07262 370.87359,523.50525 368.03571,523.50525 C 365.97659,523.50525 364.63221,524.11237 363.59509,525.069 L 361.93559,523.36912 z M 391.42271,527.65687 L 400.58646,527.65687 C 400.58646,524.72437 398.40484,523.26912 395.98771,523.26912 C 393.57196,523.26912 391.42271,524.69825 391.42271,527.65687 z M 377.70559,528.94887 C 377.74184,531.714 377.78584,532.1495 378.50521,532.92425 C 379.06559,533.53012 380.28059,534.2385 381.92259,534.2385 C 383.52321,534.2385 384.56346,533.53012 385.12571,532.92425 C 385.84584,532.1495 385.92671,531.67812 385.92671,528.94887 C 385.92671,526.187 385.84584,525.714 385.12571,524.94062 C 384.56346,524.33437 383.52321,523.62625 381.92259,523.62625 C 380.28059,523.62625 379.06559,524.33437 378.50521,524.94062 C 377.78584,525.714 377.66809,526.16462 377.70559,528.94887 z M 375.21084,522.85987 C 375.33771,522.6965 375.47934,522.53275 375.63596,522.35687 C 376.52871,521.38975 378.28009,520.28987 380.84346,520.28987 C 382.86584,520.28987 384.46009,520.95662 385.93646,522.29087 L 385.93646,520.48937 L 389.89971,520.48937 L 389.89971,522.34262 C 391.47184,520.86625 393.58496,520.28987 395.56209,520.28987 C 399.89746,520.28987 403.63109,523.26037 403.65434,528.25212 C 403.65959,529.10612 403.55859,530.63237 403.55859,530.63237 L 391.41759,530.63725 C 391.41759,533.3955 393.29896,534.43675 396.01234,534.43675 C 397.52109,534.43675 399.43809,533.7465 400.60059,532.71825 L 403.26034,534.65 C 401.32271,536.57712 398.72184,537.62675 396.08796,537.62675 C 393.92134,537.62675 391.59221,537.1195 389.89971,535.5755 L 389.89971,537.00012 C 389.89971,542.10375 385.85746,544.43812 381.35059,544.43812 C 378.82359,544.43812 376.25771,543.30325 374.50896,541.603 L 377.57871,539.50237 C 378.55184,540.33562 379.91171,541.03625 381.42696,541.03625 C 384.07059,541.03625 385.93646,539.73562 385.93646,537.367 L 385.93646,535.63275 C 384.69284,536.7995 382.86584,537.60012 380.84346,537.60012 C 378.62496,537.60012 377.01596,536.77637 376.04284,535.92712 L 376.04284,537.64287 L 372.07821,537.64287 L 372.07821,535.91425 L 372.00221,535.91425 C 371.18546,537.082 369.82484,537.61537 367.14284,537.61537 C 364.63609,537.61537 362.72621,536.88762 361.54646,535.71787 C 360.06971,536.937 357.71734,537.597 355.01434,537.597 C 351.82671,537.597 348.87196,536.59612 346.34546,534.56237 L 349.10484,532.22775 C 350.81484,533.66012 352.68009,534.3965 355.32459,534.3965 C 357.58021,534.3965 359.21121,533.66012 359.21121,532.22775 C 359.21121,531.026 358.16246,530.6595 356.80121,530.55925 L 353.30309,530.29262 C 350.03846,530.05937 347.62846,528.39125 347.62846,525.49025 C 347.62846,522.05412 350.81484,520.28625 354.97484,520.28625 C 357.97946,520.28625 360.13284,520.96612 361.92084,522.06187 C 363.37121,520.76212 365.27596,520.304 367.84184,520.304 C 371.26109,520.304 373.92921,520.99762 375.21084,522.85987" style="fill:#008066;fill-opacity:1;fill-rule:nonzero;stroke:none" id="path2489"/>
  </g>
</svg>
