<?xml version="1.0" encoding="utf-8"?>
<!-- Generator: Adobe Illustrator 17.0.0, SVG Export Plug-In . SVG Version: 6.00 Build 0)  -->
<!DOCTYPE svg PUBLIC "-//W3C//DTD SVG 1.1//EN" "http://www.w3.org/Graphics/SVG/1.1/DTD/svg11.dtd">
<svg version="1.1" id="Ebene_1" xmlns="http://www.w3.org/2000/svg" xmlns:xlink="http://www.w3.org/1999/xlink" x="0px" y="0px"
	 width="500px" height="240px" viewBox="0 0 500 240" enable-background="new 0 0 500 240" xml:space="preserve">
<path fill="#343434" d="M136.357,142.275V92.629h-8.83v-7.575h8.83V71h10.554v14.054h8.83v7.575h-8.83v49.646"/>
<path fill="#343434" d="M159.055,109.112c0-7.488,1.959-13.653,5.878-18.494c3.918-4.842,9.291-7.263,16.118-7.263
	c6.792,0,12.155,2.412,16.092,7.236c3.936,4.824,5.904,10.997,5.904,18.521v7.211c0,7.557-1.959,13.732-5.878,18.52
	c-3.918,4.79-9.273,7.185-16.065,7.185c-6.862,0-12.252-2.395-16.17-7.185c-3.919-4.788-5.878-10.963-5.878-18.52V109.112z
	 M169.661,116.279c0,5.167,0.94,9.41,2.821,12.726c1.881,3.318,4.754,4.976,8.621,4.976c3.762,0,6.591-1.657,8.49-4.976
	c1.898-3.316,2.847-7.559,2.847-12.726v-7.228c0-5.098-0.949-9.313-2.847-12.648c-1.899-3.334-4.747-5.002-8.542-5.002
	c-3.832,0-6.688,1.659-8.568,4.976c-1.881,3.317-2.821,7.542-2.821,12.675V116.279z"/>
<path fill="#343434" d="M221.736,103.235v38.695H211.13V84.4h10.606v8.229l8.056-8.229h10.606L221.736,103.235z"/>
<path fill="#343434" d="M309.093,83.355c4.941-0.208,8.794,1.829,11.546,5.485c2.751,3.658,4.128,9.335,4.128,17.033v36.056H314.16
	v-35.953c0-5.259-0.749-8.968-2.247-11.128c-1.497-2.159-3.762-3.239-6.791-3.239c-2.16,0-4.076,0.671-5.748,2.012
	s-3.029,3.16-4.074,5.459v42.849h-10.606V84.4H295.3c0,0-0.026,5.403,0,5.359C299.438,82.938,309.093,83.355,309.093,83.355z"/>
<path fill="#343434" d="M353.01,142.027c-6.722,0.009-10.903-2.334-14.943-7.002c-4.041-4.667-6.061-10.64-6.061-17.919v-8.255
	c0-7.384,1.977-13.479,5.93-18.286s8.978-7.21,15.073-7.21c6.408,0,11.338,2.187,14.785,6.557
	c3.449,4.372,5.173,10.249,5.173,17.634v7.314h-30.407v2.246c0,0-0.06,16.752,10.454,16.894c9.235,0.125,9.452-9.875,9.452-9.875
	l10.501-0.093C372.968,124.032,372.875,142,353.01,142.027z M353.01,91.401c-3.065,0-5.521,1.499-7.367,4.496
	c-1.846,2.998-2.873,6.794-3.082,11.387h19.906v-2.156c0-4.031-0.802-7.327-2.404-9.888
	C358.461,92.681,356.109,91.401,353.01,91.401z"/>
<path fill="#343434" d="M406.704,126.771c0-2.195-0.724-4.05-2.168-5.564c-1.446-1.515-4.172-3.178-8.177-4.99
	c-5.817-2.264-10.128-4.676-12.931-7.235c-2.805-2.561-4.206-5.878-4.206-9.953c0-4.354,1.715-8.054,5.146-11.103
	c3.43-3.047,7.933-4.571,13.505-4.571c5.817,0,10.449,1.646,13.898,4.938c3.447,3.291,5.102,7.393,4.963,12.304l-0.104,0.313
	h-10.188c0-2.682-0.757-4.989-2.272-6.923c-1.515-1.933-3.613-2.899-6.296-2.899c-2.646,0-4.711,0.749-6.19,2.247
	c-1.481,1.497-2.221,3.257-2.221,5.276c0,2.16,0.635,3.866,1.907,5.12c1.271,1.254,4.014,2.892,8.229,4.911
	c5.921,2.125,10.318,4.537,13.192,7.236c2.873,2.699,4.31,6.156,4.31,10.37c0,4.668-1.775,8.465-5.328,11.391
	s-8.221,4.389-14.002,4.389c-6.235,0-11.146-1.768-14.734-5.304c-3.587-3.534-5.294-7.671-5.119-12.408l0.104-0.313h9.875
	c0.139,3.657,1.149,6.296,3.03,7.915c1.881,1.62,4.214,2.43,7.001,2.43c2.751,0,4.902-0.705,6.452-2.116
	C405.929,130.82,406.704,129,406.704,126.771z"/>
<path fill="#343434" d="M452.255,126.771c0-2.195-0.724-4.05-2.168-5.564c-1.446-1.515-4.172-3.178-8.177-4.99
	c-5.817-2.264-10.128-4.676-12.931-7.235c-2.805-2.561-4.206-5.878-4.206-9.953c0-4.354,1.715-8.054,5.146-11.103
	c3.43-3.047,7.933-4.571,13.505-4.571c5.817,0,10.449,1.646,13.898,4.938c3.447,3.291,5.102,7.393,4.963,12.304l-0.104,0.313
	h-10.188c0-2.682-0.757-4.989-2.272-6.923c-1.515-1.933-3.613-2.899-6.296-2.899c-2.646,0-4.711,0.749-6.19,2.247
	c-1.481,1.497-2.221,3.257-2.221,5.276c0,2.16,0.635,3.866,1.907,5.12c1.271,1.254,4.014,2.892,8.229,4.911
	c5.921,2.125,10.318,4.537,13.192,7.236c2.873,2.699,4.31,6.156,4.31,10.37c0,4.668-1.775,8.465-5.328,11.391
	s-8.221,4.389-14.002,4.389c-6.235,0-11.146-1.768-14.734-5.304c-3.587-3.534-5.294-7.671-5.119-12.408l0.104-0.313h9.875
	c0.139,3.657,1.149,6.296,3.03,7.915c1.881,1.62,4.214,2.43,7.001,2.43c2.751,0,4.902-0.705,6.452-2.116
	C451.479,130.82,452.255,129,452.255,126.771z"/>
<path fill="#343434" d="M257.677,142c-6.722,0.009-10.903-2.334-14.943-7.002c-4.041-4.667-6.061-10.64-6.061-17.919v-8.255
	c0-7.384,1.977-13.479,5.93-18.286s8.978-7.21,15.073-7.21c6.408,0,11.338,2.187,14.785,6.557
	c3.449,4.372,5.173,10.249,5.173,17.634v7.314h-30.407v2.246c0,0-0.06,16.752,10.454,16.894c9.235,0.125,9.452-9.875,9.452-9.875
	l10.501-0.093C277.635,124.005,277.542,141.973,257.677,142z M257.676,91.374c-3.065,0-5.52,1.499-7.367,4.496
	c-1.846,2.998-2.873,6.794-3.082,11.387h19.906V105.1c0-4.031-0.802-7.327-2.404-9.888
	C263.128,92.654,260.776,91.374,257.676,91.374z"/>
<g>
	<path fill="#FC8506" d="M94.277,131.729c2.598,0,4.913-0.362,6.947-1.085s3.785-1.809,5.255-3.256
		c1.47-1.447,2.572-3.141,3.307-5.084s1.102-4.133,1.102-6.571c0-2.347-0.331-4.483-0.991-6.408s-1.652-3.64-2.973-5.144
		c-1.322-1.504-3.139-2.917-5.452-4.238s-5.121-2.552-8.425-3.692c-4.74-1.433-8.927-3.086-12.561-4.958s-6.716-3.963-9.245-6.274
		c-2.529-2.31-4.426-4.992-5.691-8.047s-1.897-6.484-1.897-10.285c0-3.915,0.703-7.479,2.11-10.694s3.518-6.079,6.332-8.594
		c2.814-2.515,6.03-4.401,9.647-5.658s7.636-1.886,12.057-1.886c4.603,0,8.758,0.726,12.467,2.179s6.97,3.632,9.784,6.537
		c2.814,2.905,4.902,6.11,6.263,9.613s1.997,7.306,1.906,11.407l-0.068,0.205l-0.068,0.205h-6.665h-6.665
		c0-2.904-0.373-5.536-1.12-7.897s-1.866-4.451-3.358-6.269c-1.493-1.818-3.29-3.181-5.392-4.09s-4.509-1.363-7.22-1.363
		c-2.575,0-4.857,0.379-6.845,1.137s-3.683,1.894-5.084,3.409c-1.401,1.516-2.452,3.239-3.153,5.17s-1.051,4.07-1.051,6.417
		c0,2.119,0.376,4.07,1.128,5.853s1.88,3.398,3.384,4.845c1.504,1.447,3.498,2.829,5.981,4.145s5.457,2.566,8.921,3.751
		c4.534,1.415,8.527,3.086,11.979,5.014s6.363,4.112,8.733,6.552c2.37,2.441,4.147,5.242,5.332,8.401s1.777,6.678,1.777,10.557
		c0,4.084-0.701,7.746-2.102,10.985s-3.503,6.057-6.306,8.452c-2.803,2.396-6.044,4.193-9.724,5.39s-7.799,1.796-12.356,1.796
		V131.729z M72.094,47.399c2.814-2.515,6.03-4.401,9.647-5.658s7.636-1.886,12.057-1.886c4.603,0,8.758,0.726,12.467,2.179
		s6.97,3.632,9.784,6.537c2.814,2.905,4.902,6.11,6.263,9.613s1.997,7.306,1.906,11.407l-0.068,0.205l-0.068,0.205h-6.665h-6.665
		c0-2.904-0.373-5.536-1.12-7.897s-1.866-4.451-3.358-6.269c-1.493-1.818-3.29-3.181-5.392-4.09s-4.509-1.363-7.22-1.363
		c-2.575,0-4.857,0.379-6.845,1.137s-3.683,1.894-5.084,3.409"/>
</g>
</svg>
